<?xml version="1.0" encoding="UTF-8" standalone="no"?>
<!-- Created with Inkscape (http://www.inkscape.org/) -->

<svg
   viewBox="0 0 65.497536 29.347754"
   version="1.1"
   id="svg1">
  <defs
     id="defs1" />
  <g
     id="layer1"
     transform="translate(-53.315034,-89.756386)">
    <g
       id="g1">
      <path
         d="m 63.078147,101.37158 q -0.582083,-0.60854 -1.243541,-0.92604 -0.634999,-0.34396 -1.481664,-0.34396 -1.40229,0 -2.354789,1.13771 -0.92604,1.11125 -0.92604,2.7252 0,1.64042 0.952498,2.69875 0.978957,1.03187 2.460622,1.03187 0.767291,0 1.428748,-0.34395 0.661458,-0.34396 1.164166,-0.89959 v 3.57187 q -0.793749,0.44979 -1.587498,0.60854 -0.767291,0.18521 -1.613957,0.18521 -2.778121,0 -4.683119,-1.98437 -1.878539,-2.01083 -1.878539,-4.89479 0,-1.87853 0.873124,-3.49249 0.873124,-1.613957 2.434163,-2.539998 1.56104,-0.92604 3.439579,-0.92604 0.740833,0 1.508123,0.211666 0.793749,0.185208 1.508124,0.608541 z m 3.664459,-9.419155 q 0,-0.873124 0.634999,-1.534581 0.634999,-0.661458 1.56104,-0.661458 0.92604,0 1.561039,0.661458 0.635,0.661457 0.635,1.534581 0,0.926041 -0.635,1.56104 -0.634999,0.634999 -1.561039,0.634999 -0.926041,0 -1.56104,-0.634999 -0.634999,-0.634999 -0.634999,-1.56104 z m 4.04812,5.45041 V 110.39386 H 67.086564 V 97.402835 Z m 6.60135,0 3.042704,7.328945 2.672288,-7.328945 h 4.04812 L 81.175613,110.65844 H 79.270615 L 73.317498,97.402835 Z m 11.998861,-5.45041 q 0,-0.873124 0.635,-1.534581 0.634999,-0.661458 1.561039,-0.661458 0.926041,0 1.56104,0.661458 0.634999,0.661457 0.634999,1.534581 0,0.926041 -0.634999,1.56104 -0.634999,0.634999 -1.56104,0.634999 -0.92604,0 -1.561039,-0.634999 -0.635,-0.634999 -0.635,-1.56104 z m 4.04812,5.45041 V 110.39386 H 89.734895 V 97.402835 Z m 8.479893,-4.392078 v 4.392078 h 2.27541 v 3.122075 h -2.27541 v 9.86895 h -3.704166 v -9.86895 h -1.269999 v -3.122075 h 1.269999 v -4.392078 z m 13.24238,4.392078 h 3.65124 v 12.991025 h -3.65124 v -1.19062 h -0.0529 q -0.58208,0.76729 -1.56104,1.19062 -0.9525,0.42333 -1.95791,0.42333 -2.56646,0 -4.28625,-2.01083 -1.69333,-2.03729 -1.69333,-4.97416 0,-1.82562 0.74083,-3.38666 0.74083,-1.56104 2.09021,-2.513539 1.37583,-0.952499 3.09562,-0.952499 1.00541,0 1.95791,0.423333 0.97896,0.423333 1.66688,1.217082 z m -2.75167,2.857495 q -1.24354,0 -2.14312,1.08479 -0.89958,1.05833 -0.89958,2.54 0,1.48166 0.89958,2.56645 0.89958,1.08479 2.16958,1.08479 1.29646,0 2.19604,-1.05833 0.89958,-1.08479 0.89958,-2.59291 0,-1.50812 -0.92604,-2.56646 -0.89958,-1.05833 -2.19604,-1.05833 z"
         id="text1"
         style="font-size:26.4583px;font-family:Futura;-inkscape-font-specification:Futura;letter-spacing:1.52135px;word-spacing:0px;stroke-width:0.264583"
         aria-label="civita" />
      <path
         d="m 56.948,113.61774 v 5.3848 h -0.889 v -0.2921 h -0.0127 q -0.1397,0.1905 -0.3683,0.2921 -0.2286,0.1016 -0.4699,0.1016 -0.61595,0 -1.0287,-0.4826 -0.4064,-0.4826 -0.4064,-1.1938 0,-0.67945 0.4064,-1.16205 0.41275,-0.4826 1.016,-0.4826 0.2413,0 0.4699,0.1016 0.23495,0.1016 0.381,0.28575 h 0.0127 v -2.5527 z m -1.54305,2.95275 q -0.29845,0 -0.51435,0.26035 -0.2159,0.254 -0.2159,0.6096 0,0.36195 0.2159,0.6223 0.2159,0.254 0.5207,0.254 0.3175,0 0.52705,-0.2667 0.20955,-0.2667 0.20955,-0.6096 0,-0.3556 -0.2159,-0.6096 -0.2159,-0.26035 -0.52705,-0.26035 z m 2.895603,1.016 q 0,0.38735 0.1651,0.61595 0.1651,0.22225 0.45085,0.22225 0.22225,0 0.36195,-0.12065 0.14605,-0.12065 0.23495,-0.3048 l 0.81915,0.13335 q -0.1651,0.47625 -0.5461,0.7239 -0.37465,0.24765 -0.86995,0.24765 -0.69215,0 -1.12395,-0.45085 -0.4318,-0.45085 -0.4318,-1.1811 0,-0.76835 0.4064,-1.22555 0.4064,-0.46355 1.1049,-0.46355 0.6985,0 1.08585,0.45085 0.3937,0.45085 0.3937,1.27635 v 0.0762 z m 1.21285,-0.55245 q -0.04445,-0.2921 -0.20955,-0.4572 -0.1651,-0.17145 -0.38735,-0.17145 -0.20955,0 -0.37465,0.1524 -0.1651,0.1524 -0.2159,0.47625 z m 4.044946,1.9685 h -0.889 v -1.8034 q 0,-0.3429 -0.1016,-0.5207 -0.1016,-0.18415 -0.381,-0.18415 -0.254,0 -0.3937,0.2032 -0.1397,0.19685 -0.1397,0.69215 v 1.6129 h -0.889 v -3.11785 h 0.889 v 0.28575 h 0.0127 q 0.1397,-0.20955 0.3556,-0.29845 0.2159,-0.0889 0.4572,-0.0889 0.53975,0 0.80645,0.3302 0.27305,0.32385 0.27305,0.95885 z m 3.359153,-5.3848 v 5.3848 h -0.889 v -5.3848 z m 0.596899,0.95885 q 0,-0.20955 0.1524,-0.3683 0.1524,-0.15875 0.37465,-0.15875 0.22225,0 0.37465,0.15875 0.1524,0.15875 0.1524,0.3683 0,0.22225 -0.1524,0.37465 -0.1524,0.1524 -0.37465,0.1524 -0.22225,0 -0.37465,-0.1524 -0.1524,-0.1524 -0.1524,-0.37465 z m 0.97155,1.3081 v 3.11785 h -0.889 v -3.11785 z m 1.562102,-2.26695 v 2.5527 q 0.1651,-0.18415 0.3937,-0.28575 0.2286,-0.1016 0.4699,-0.1016 0.3937,0 0.7239,0.22225 0.3302,0.22225 0.51435,0.6096 0.18415,0.381 0.18415,0.8128 0,0.46355 -0.18415,0.85725 -0.18415,0.38735 -0.5207,0.60325 -0.3302,0.2159 -0.7366,0.2159 -0.2413,0 -0.4699,-0.1016 -0.2286,-0.1016 -0.36195,-0.2921 h -0.0127 v 0.2921 h -0.889 v -5.3848 z m 0.64135,2.95275 q -0.29845,0 -0.51435,0.26035 -0.2159,0.254 -0.2159,0.6096 0,0.36195 0.2159,0.6223 0.2159,0.254 0.5207,0.254 0.32385,0 0.52705,-0.2667 0.20955,-0.2667 0.20955,-0.6096 0,-0.3429 -0.20955,-0.60325 -0.20955,-0.2667 -0.5334,-0.2667 z m 2.774953,1.016 q 0,0.38735 0.1651,0.61595 0.1651,0.22225 0.45085,0.22225 0.22225,0 0.36195,-0.12065 0.14605,-0.12065 0.23495,-0.3048 l 0.81915,0.13335 q -0.1651,0.47625 -0.5461,0.7239 -0.37465,0.24765 -0.86995,0.24765 -0.69215,0 -1.12395,-0.45085 -0.4318,-0.45085 -0.4318,-1.1811 0,-0.76835 0.4064,-1.22555 0.4064,-0.46355 1.1049,-0.46355 0.6985,0 1.08585,0.45085 0.3937,0.45085 0.3937,1.27635 v 0.0762 z m 1.21285,-0.55245 q -0.04445,-0.2921 -0.20955,-0.4572 -0.1651,-0.17145 -0.38735,-0.17145 -0.20955,0 -0.37465,0.1524 -0.1651,0.1524 -0.2159,0.47625 z m 3.187697,-0.34925 q -0.1651,-0.1143 -0.3683,-0.1143 -0.3429,0 -0.51435,0.23495 -0.1651,0.2286 -0.1651,0.762 v 1.4351 h -0.889 v -3.11785 h 0.889 v 0.32385 h 0.0127 q 0.13335,-0.2032 0.3302,-0.31115 0.19685,-0.1143 0.4445,-0.1143 0.18415,0.006 0.3683,0.0762 z m 2.425699,-0.8001 h 0.8763 v 3.11785 h -0.8763 v -0.28575 h -0.0127 q -0.1397,0.18415 -0.37465,0.28575 -0.2286,0.1016 -0.4699,0.1016 -0.61595,0 -1.0287,-0.4826 -0.4064,-0.48895 -0.4064,-1.1938 0,-0.43815 0.1778,-0.8128 0.1778,-0.37465 0.50165,-0.60325 0.3302,-0.2286 0.74295,-0.2286 0.2413,0 0.4699,0.1016 0.23495,0.1016 0.40005,0.2921 z m -0.6604,0.6858 q -0.29845,0 -0.51435,0.26035 -0.2159,0.254 -0.2159,0.6096 0,0.3556 0.2159,0.61595 0.2159,0.26035 0.5207,0.26035 0.31115,0 0.52705,-0.254 0.2159,-0.26035 0.2159,-0.6223 0,-0.36195 -0.22225,-0.61595 -0.2159,-0.254 -0.52705,-0.254 z m 3.067053,-2.95275 v 5.3848 h -0.889 v -5.3848 z m 1.346203,3.96875 q 0,0.38735 0.1651,0.61595 0.1651,0.22225 0.45085,0.22225 0.22225,0 0.36195,-0.12065 0.14605,-0.12065 0.23495,-0.3048 l 0.81915,0.13335 q -0.1651,0.47625 -0.5461,0.7239 -0.37465,0.24765 -0.86995,0.24765 -0.69215,0 -1.12395,-0.45085 -0.4318,-0.45085 -0.4318,-1.1811 0,-0.76835 0.4064,-1.22555 0.4064,-0.46355 1.1049,-0.46355 0.6985,0 1.08585,0.45085 0.3937,0.45085 0.3937,1.27635 v 0.0762 z m 1.21285,-0.55245 q -0.04445,-0.2921 -0.20955,-0.4572 -0.1651,-0.17145 -0.38735,-0.17145 -0.20955,0 -0.37465,0.1524 -0.1651,0.1524 -0.2159,0.47625 z m 4.083044,-2.20345 v 1.0541 h 0.5461 v 0.7493 h -0.5461 v 2.36855 h -0.889 v -2.36855 h -0.3048 v -0.7493 h 0.3048 v -1.0541 z m 2.813049,1.0541 h 0.8763 v 3.11785 h -0.8763 v -0.28575 h -0.0127 q -0.1397,0.18415 -0.37465,0.28575 -0.2286,0.1016 -0.4699,0.1016 -0.61595,0 -1.0287,-0.4826 -0.4064,-0.48895 -0.4064,-1.1938 0,-0.43815 0.1778,-0.8128 0.1778,-0.37465 0.50165,-0.60325 0.3302,-0.2286 0.74295,-0.2286 0.2413,0 0.4699,0.1016 0.23495,0.1016 0.40005,0.2921 z m -0.6604,0.6858 q -0.29845,0 -0.51435,0.26035 -0.2159,0.254 -0.2159,0.6096 0,0.3556 0.2159,0.61595 0.2159,0.26035 0.5207,0.26035 0.31115,0 0.52705,-0.254 0.2159,-0.26035 0.2159,-0.6223 0,-0.36195 -0.22225,-0.61595 -0.2159,-0.254 -0.52705,-0.254 z m 4.972053,2.43205 h -0.889 v -1.8034 q 0,-0.3429 -0.1016,-0.5207 -0.1016,-0.18415 -0.381,-0.18415 -0.254,0 -0.3937,0.2032 -0.1397,0.19685 -0.1397,0.69215 v 1.6129 h -0.889 v -3.11785 h 0.889 v 0.28575 h 0.0127 q 0.1397,-0.20955 0.3556,-0.29845 0.2159,-0.0889 0.4572,-0.0889 0.53975,0 0.80645,0.3302 0.27305,0.32385 0.27305,0.95885 z m 1.524009,-5.3848 v 3.40995 h 0.0127 l 0.93345,-1.143 h 1.155697 l -1.314447,1.3716 1.416047,1.74625 h -1.168397 l -1.02235,-1.32715 h -0.0127 v 1.32715 h -0.889 v -5.3848 z m 3.054357,3.96875 q 0,0.38735 0.1651,0.61595 0.1651,0.22225 0.45085,0.22225 0.22225,0 0.36195,-0.12065 0.14605,-0.12065 0.23495,-0.3048 l 0.81915,0.13335 q -0.1651,0.47625 -0.5461,0.7239 -0.37465,0.24765 -0.86995,0.24765 -0.69215,0 -1.12395,-0.45085 -0.4318,-0.45085 -0.4318,-1.1811 0,-0.76835 0.4064,-1.22555 0.4064,-0.46355 1.1049,-0.46355 0.6985,0 1.08585,0.45085 0.3937,0.45085 0.3937,1.27635 v 0.0762 z m 1.21285,-0.55245 q -0.0444,-0.2921 -0.20955,-0.4572 -0.1651,-0.17145 -0.38735,-0.17145 -0.20955,0 -0.37465,0.1524 -0.1651,0.1524 -0.2159,0.47625 z m 2.85115,-0.41275 q -0.0952,-0.0889 -0.2159,-0.1524 -0.12065,-0.0635 -0.254,-0.0635 -0.10795,0 -0.2032,0.0762 -0.0889,0.0762 -0.0889,0.1905 0,0.12065 0.1016,0.1905 0.10795,0.0699 0.3302,0.15875 l 0.20955,0.0826 q 0.2921,0.1143 0.46355,0.3302 0.1778,0.20955 0.1778,0.56515 0,0.4826 -0.3429,0.79375 -0.33655,0.31115 -0.86995,0.31115 -0.32385,0 -0.6096,-0.13335 -0.28575,-0.1397 -0.48895,-0.38735 l 0.4064,-0.52705 q 0.13335,0.14605 0.29845,0.254 0.1651,0.10795 0.36195,0.10795 0.14605,0 0.24765,-0.0889 0.10795,-0.0953 0.10795,-0.24765 0,-0.14605 -0.1143,-0.2286 -0.10795,-0.0825 -0.3302,-0.17145 -0.4064,-0.1524 -0.5461,-0.27305 -0.13335,-0.127 -0.19685,-0.27305 -0.0571,-0.1524 -0.0571,-0.3429 0,-0.43815 0.2794,-0.7239 0.28575,-0.28575 0.7112,-0.28575 0.27305,0.006 0.5461,0.0889 0.27305,0.0762 0.4572,0.23495 z m 3.56234,-0.34925 q 0.14605,-0.2286 0.38735,-0.3556 0.24765,-0.13335 0.5207,-0.13335 0.50165,0 0.74295,0.3175 0.24765,0.3175 0.24765,0.9271 v 1.97485 h -0.889 v -1.74625 q 0,-0.3683 -0.0952,-0.56515 -0.0889,-0.19685 -0.32385,-0.19685 -0.2413,0 -0.36195,0.22225 -0.1143,0.2159 -0.1143,0.70485 v 1.58115 h -0.889 v -1.80975 q 0,-0.34925 -0.10795,-0.5207 -0.10795,-0.1778 -0.3175,-0.1778 -0.20955,0 -0.3429,0.18415 -0.127,0.18415 -0.127,0.6096 v 1.7145 h -0.889 v -3.11785 h 0.889 v 0.2794 h 0.0127 q 0.13335,-0.18415 0.33655,-0.2794 0.20955,-0.1016 0.42545,-0.1016 0.5969,0 0.89535,0.48895 z m 2.49555,-1.69545 q 0,-0.20955 0.1524,-0.3683 0.1524,-0.15875 0.37465,-0.15875 0.22225,0 0.37465,0.15875 0.1524,0.15875 0.1524,0.3683 0,0.22225 -0.1524,0.37465 -0.1524,0.1524 -0.37465,0.1524 -0.22225,0 -0.37465,-0.1524 -0.1524,-0.1524 -0.1524,-0.37465 z m 0.97155,1.3081 v 3.11785 h -0.889 v -3.11785 z m 1.39066,1.7018 q 0,0.38735 0.1651,0.61595 0.1651,0.22225 0.45085,0.22225 0.22225,0 0.36195,-0.12065 0.14605,-0.12065 0.23495,-0.3048 l 0.81915,0.13335 q -0.1651,0.47625 -0.5461,0.7239 -0.37465,0.24765 -0.86995,0.24765 -0.69215,0 -1.12395,-0.45085 -0.4318,-0.45085 -0.4318,-1.1811 0,-0.76835 0.4064,-1.22555 0.4064,-0.46355 1.1049,-0.46355 0.6985,0 1.08585,0.45085 0.3937,0.45085 0.3937,1.27635 v 0.0762 z m 1.21285,-0.55245 q -0.0444,-0.2921 -0.20955,-0.4572 -0.1651,-0.17145 -0.38735,-0.17145 -0.20955,0 -0.37465,0.1524 -0.1651,0.1524 -0.2159,0.47625 z m 4.04494,1.9685 h -0.889 v -1.8034 q 0,-0.3429 -0.1016,-0.5207 -0.1016,-0.18415 -0.381,-0.18415 -0.254,0 -0.3937,0.2032 -0.1397,0.19685 -0.1397,0.69215 v 1.6129 h -0.889 v -3.11785 h 0.889 v 0.28575 h 0.0127 q 0.1397,-0.20955 0.3556,-0.29845 0.2159,-0.0889 0.4572,-0.0889 0.53975,0 0.80645,0.3302 0.27305,0.32385 0.27305,0.95885 z"
         id="text3"
         style="font-size:6.35px;font-family:Futura;-inkscape-font-specification:Futura;letter-spacing:0px;word-spacing:0px;stroke-width:0.264583"
         aria-label="den liberale tankesmien" />
    </g>
  </g>
</svg>
